<?xml version="1.0" encoding="utf-8"?>
<!-- Generator: Adobe Illustrator 17.1.0, SVG Export Plug-In . SVG Version: 6.00 Build 0)  -->
<!DOCTYPE svg PUBLIC "-//W3C//DTD SVG 1.1//EN" "http://www.w3.org/Graphics/SVG/1.1/DTD/svg11.dtd">
<svg version="1.1" xmlns="http://www.w3.org/2000/svg" xmlns:xlink="http://www.w3.org/1999/xlink" x="0px" y="0px" width="37px"
	 height="101px" viewBox="0 0 37 101" enable-background="new 0 0 37 101" xml:space="preserve">
<g id="Guides" display="none">
</g>
<g id="_x31_2_Col_Grid" display="none" opacity="0.1" enable-background="new    ">
</g>
<g id="Layer_3" display="none">
</g>
<g id="Layer_3_copy" display="none">
</g>
<g id="Layer_3_copy_2" display="none">
</g>
<g id="Layer_3_copy_3" display="none">
</g>
<g id="Layer_3_copy_4" display="none">
</g>
<g id="design">
	<g opacity="0.4">
		<polyline fill="none" stroke="#28007D" stroke-width="1.6667" stroke-miterlimit="10" points="6,42.3 18.5,50.9 30.9,42.3 
			30.9,42.3 		"/>
		<rect x="6" y="42.3" fill="none" stroke="#28007D" stroke-width="1.6667" stroke-miterlimit="10" width="25" height="15"/>
	</g>
	<g opacity="0.4">
		<path fill="none" stroke="#28007D" stroke-width="1.6667" stroke-miterlimit="10" d="M19.9,23.1c-0.7,0.1-1.4,0.1-2.1,0.1
			c-1.2,0-3.2-0.2-4.3-0.5c-0.7-0.2-1.7,2-3.7,1.6c0,0,1.8-2.4,0.5-3.2C7.7,19.4,6,16.7,6,13.8c0-5.2,5.3-9.4,11.9-9.4
			s11.9,4.2,11.9,9.4"/>
		<path fill="none" stroke="#28007D" stroke-width="1.6667" stroke-miterlimit="10" d="M15.2,17.3c0,3.5,3.5,6.3,7.9,6.3
			c0.8,0,2.1-0.2,2.8-0.3c0.5-0.1,1.1,1.3,2.5,1.1c0,0-1.2-1.6-0.3-2.1c1.8-1.1,2.9-2.9,2.9-4.9c0-3.5-3.5-6.3-7.9-6.3
			S15.2,13.8,15.2,17.3z"/>
	</g>
	<g opacity="0.4">
		<path fill="#28007D" d="M29.6,77.8c0.2-0.3,0.3-0.6,0.4-0.9c0.1-0.3,0-0.6-0.3-0.8c-0.2-0.2-0.6-0.2-0.9-0.1
			c-0.7,0.4-1.5,0.8-2.3,1c-1-0.9-2.3-1.4-3.6-1.4c-3,0-5.4,2.4-5.4,5.4c0,0.1,0,0.1,0,0.2c-3.2-0.4-6.1-2-8.2-4.5
			c-0.2-0.2-0.4-0.3-0.6-0.3c-0.2,0-0.5,0.2-0.6,0.4c-0.5,0.8-0.7,1.8-0.7,2.7c0,0.9,0.2,1.8,0.6,2.6c-0.1,0-0.2,0.1-0.3,0.1
			c-0.2,0.1-0.4,0.4-0.4,0.7C7.3,84.5,8,86,9.2,87c0,0,0,0,0,0c-0.2,0.2-0.2,0.5-0.2,0.7c0.5,1.6,1.7,2.8,3.1,3.4
			c-1.5,0.7-3.2,1-4.8,0.8c-0.3,0-0.7,0.2-0.8,0.5c-0.1,0.3,0,0.7,0.3,0.9c2.3,1.5,4.9,2.2,7.6,2.2c8.8,0,14-7.1,14-14
			c0-0.1,0-0.2,0-0.2c0.8-0.7,1.6-1.5,2.2-2.4c0.2-0.3,0.2-0.7,0-0.9C30.2,77.8,29.9,77.7,29.6,77.8z M27.1,80.3
			c-0.2,0.2-0.3,0.4-0.3,0.7c0,0.2,0,0.4,0,0.6c0,6.2-4.7,12.5-12.5,12.5c-1.4,0-2.8-0.2-4.1-0.7c1.6-0.3,3-1,4.3-2
			c0.3-0.2,0.4-0.5,0.3-0.8C14.7,90.2,14.4,90,14,90c-1.3,0-2.4-0.7-3.1-1.7c0.4,0,0.7-0.1,1.1-0.2c0.3-0.1,0.6-0.4,0.6-0.8
			c0-0.4-0.3-0.6-0.6-0.7c-1.4-0.3-2.5-1.3-3-2.7c0.4,0.1,0.8,0.2,1.2,0.2c0.3,0,0.6-0.2,0.7-0.5s0-0.7-0.3-0.9
			c-1.1-0.7-1.7-1.9-1.7-3.3c0-0.3,0-0.6,0.1-0.9c2.5,2.5,5.8,4,9.3,4.2c0.3,0,0.5-0.1,0.6-0.3s0.2-0.4,0.2-0.7
			C19,81.6,19,81.3,19,81c0-2.2,1.8-3.9,3.9-3.9c1.1,0,2.1,0.4,2.9,1.2c0.2,0.2,0.4,0.3,0.7,0.2c0.2,0,0.5-0.1,0.7-0.2
			c-0.1,0.1-0.2,0.1-0.3,0.2c-0.3,0.2-0.4,0.6-0.3,0.9c0.1,0.3,0.5,0.6,0.8,0.5c0.1,0,0.2,0,0.3,0C27.4,80.1,27.2,80.2,27.1,80.3z"
			/>
	</g>
</g>
<g id="illusrations">
</g>
</svg>
