<?xml version="1.0" encoding="utf-8"?>
<!-- Generator: Adobe Illustrator 17.1.0, SVG Export Plug-In . SVG Version: 6.00 Build 0)  -->
<!DOCTYPE svg PUBLIC "-//W3C//DTD SVG 1.1//EN" "http://www.w3.org/Graphics/SVG/1.1/DTD/svg11.dtd">
<svg version="1.1" id="Layer_1" xmlns="http://www.w3.org/2000/svg" xmlns:xlink="http://www.w3.org/1999/xlink" x="0px" y="0px"
	 width="364px" height="121px" viewBox="0 0 364 121" enable-background="new 0 0 364 121" xml:space="preserve">
<g>
	<path fill="#76FBA8" d="M23.9,112.5c0,0.7-0.1,1.3-0.3,1.8s-0.5,1-0.9,1.4c-0.4,0.4-0.9,0.7-1.4,0.9c-0.6,0.2-1.2,0.3-1.8,0.3
		s-1.3-0.1-1.8-0.3c-0.6-0.2-1-0.5-1.4-0.9c-0.4-0.4-0.7-0.9-0.9-1.4s-0.3-1.2-0.3-1.8c0-0.7,0.1-1.3,0.3-1.8c0.2-0.6,0.5-1,0.9-1.4
		c0.4-0.4,0.9-0.7,1.4-0.9c0.6-0.2,1.2-0.3,1.8-0.3s1.3,0.1,1.8,0.3c0.6,0.2,1,0.5,1.4,0.9c0.4,0.4,0.7,0.9,0.9,1.4
		C23.7,111.2,23.9,111.8,23.9,112.5z M22.6,112.5c0-0.5-0.1-0.9-0.2-1.3c-0.2-0.4-0.4-0.8-0.7-1.1c-0.3-0.3-0.6-0.6-1-0.7
		c-0.4-0.2-0.8-0.3-1.3-0.3c-0.5,0-0.9,0.1-1.3,0.3c-0.4,0.2-0.7,0.4-1,0.7c-0.3,0.3-0.5,0.7-0.6,1.1c-0.2,0.4-0.2,0.9-0.2,1.3
		c0,0.5,0.1,0.9,0.2,1.3c0.2,0.4,0.4,0.8,0.7,1.1c0.3,0.3,0.6,0.6,1,0.7s0.8,0.3,1.3,0.3s0.9-0.1,1.3-0.3c0.4-0.2,0.7-0.4,1-0.7
		c0.3-0.3,0.5-0.7,0.7-1.1C22.5,113.4,22.6,112.9,22.6,112.5z"/>
	<path fill="#76FBA8" d="M30.7,108.2h2.6c0.5,0,0.9,0,1.3,0.1c0.4,0.1,0.7,0.2,1,0.4c0.3,0.2,0.5,0.4,0.6,0.7s0.2,0.7,0.2,1.1
		c0,0.4-0.1,0.8-0.2,1.1c-0.2,0.3-0.4,0.6-0.7,0.7s-0.6,0.3-1,0.4s-0.8,0.1-1.2,0.1h-1.4v3.8h-1.2V108.2z M31.9,112h1.3
		c0.3,0,0.6,0,0.8-0.1c0.2-0.1,0.5-0.1,0.6-0.2c0.2-0.1,0.3-0.3,0.4-0.4c0.1-0.2,0.1-0.4,0.1-0.7s-0.1-0.5-0.2-0.6
		c-0.1-0.2-0.2-0.3-0.4-0.4c-0.2-0.1-0.4-0.2-0.6-0.2c-0.2,0-0.5-0.1-0.8-0.1h-1.3V112z"/>
	<path fill="#76FBA8" d="M44.3,115.7h4.5v1.1h-5.7v-8.6h5.5v1.1h-4.3v2.6h4v1h-4V115.7z"/>
	<path fill="#76FBA8" d="M61.5,115L61.5,115l0-6.8h1.2v8.6h-1.5l-4.5-7h0v7h-1.2v-8.6h1.6L61.5,115z"/>
	<path fill="#76FBA8" d="M82.5,109.8c-0.2-0.2-0.4-0.4-0.7-0.6c-0.3-0.1-0.6-0.2-1-0.2c-0.2,0-0.4,0-0.6,0.1
		c-0.2,0.1-0.4,0.1-0.5,0.3c-0.2,0.1-0.3,0.3-0.4,0.4c-0.1,0.2-0.2,0.4-0.2,0.6c0,0.2,0,0.4,0.1,0.6c0.1,0.2,0.2,0.3,0.4,0.4
		c0.2,0.1,0.3,0.2,0.6,0.3c0.2,0.1,0.4,0.2,0.7,0.2c0.3,0.1,0.6,0.2,0.9,0.3c0.3,0.1,0.6,0.3,0.8,0.4c0.2,0.2,0.4,0.4,0.6,0.7
		c0.2,0.3,0.2,0.6,0.2,1.1c0,0.4-0.1,0.8-0.2,1.2c-0.2,0.3-0.4,0.6-0.7,0.8c-0.3,0.2-0.6,0.4-0.9,0.5s-0.7,0.2-1.1,0.2
		c-0.5,0-1.1-0.1-1.6-0.3c-0.5-0.2-0.9-0.5-1.2-0.9l0.9-0.8c0.2,0.3,0.5,0.5,0.8,0.7c0.3,0.2,0.7,0.3,1.1,0.3c0.2,0,0.4,0,0.6-0.1
		s0.4-0.1,0.5-0.3c0.2-0.1,0.3-0.3,0.4-0.5c0.1-0.2,0.2-0.4,0.2-0.7s-0.1-0.5-0.2-0.6c-0.1-0.2-0.3-0.3-0.4-0.4
		c-0.2-0.1-0.4-0.2-0.6-0.3c-0.2-0.1-0.5-0.2-0.8-0.3c-0.3-0.1-0.5-0.2-0.8-0.3c-0.3-0.1-0.5-0.3-0.7-0.4c-0.2-0.2-0.4-0.4-0.5-0.7
		s-0.2-0.6-0.2-1c0-0.4,0.1-0.8,0.3-1.1c0.2-0.3,0.4-0.6,0.7-0.8c0.3-0.2,0.6-0.3,0.9-0.4c0.4-0.1,0.7-0.1,1.1-0.1
		c0.5,0,1,0.1,1.4,0.3c0.4,0.2,0.8,0.4,1.1,0.7L82.5,109.8z"/>
	<path fill="#76FBA8" d="M98.9,112.5c0,0.7-0.1,1.3-0.3,1.8s-0.5,1-0.9,1.4c-0.4,0.4-0.9,0.7-1.4,0.9c-0.6,0.2-1.2,0.3-1.8,0.3
		s-1.3-0.1-1.8-0.3c-0.6-0.2-1-0.5-1.4-0.9c-0.4-0.4-0.7-0.9-0.9-1.4s-0.3-1.2-0.3-1.8c0-0.7,0.1-1.3,0.3-1.8c0.2-0.6,0.5-1,0.9-1.4
		c0.4-0.4,0.9-0.7,1.4-0.9c0.6-0.2,1.2-0.3,1.8-0.3s1.3,0.1,1.8,0.3c0.6,0.2,1,0.5,1.4,0.9c0.4,0.4,0.7,0.9,0.9,1.4
		C98.8,111.2,98.9,111.8,98.9,112.5z M97.6,112.5c0-0.5-0.1-0.9-0.2-1.3c-0.2-0.4-0.4-0.8-0.7-1.1c-0.3-0.3-0.6-0.6-1-0.7
		c-0.4-0.2-0.8-0.3-1.3-0.3c-0.5,0-0.9,0.1-1.3,0.3c-0.4,0.2-0.7,0.4-1,0.7c-0.3,0.3-0.5,0.7-0.6,1.1c-0.2,0.4-0.2,0.9-0.2,1.3
		c0,0.5,0.1,0.9,0.2,1.3c0.2,0.4,0.4,0.8,0.7,1.1c0.3,0.3,0.6,0.6,1,0.7s0.8,0.3,1.3,0.3s0.9-0.1,1.3-0.3c0.4-0.2,0.7-0.4,1-0.7
		c0.3-0.3,0.5-0.7,0.7-1.1C97.6,113.4,97.6,112.9,97.6,112.5z"/>
	<path fill="#76FBA8" d="M109,117c-0.6,0-1.1-0.1-1.5-0.3c-0.4-0.2-0.8-0.4-1-0.8c-0.3-0.3-0.5-0.7-0.6-1.1
		c-0.1-0.4-0.2-0.8-0.2-1.3v-5.4h1.2v5.3c0,0.3,0,0.6,0.1,0.9c0.1,0.3,0.2,0.5,0.4,0.8c0.2,0.2,0.4,0.4,0.7,0.5
		c0.3,0.1,0.6,0.2,1,0.2c0.4,0,0.7-0.1,1-0.2c0.3-0.1,0.5-0.3,0.7-0.5c0.2-0.2,0.3-0.5,0.4-0.8c0.1-0.3,0.1-0.6,0.1-0.9v-5.3h1.2
		v5.4c0,0.4-0.1,0.9-0.2,1.3c-0.1,0.4-0.3,0.8-0.6,1.1c-0.3,0.3-0.6,0.6-1,0.8C110.1,116.9,109.6,117,109,117z"/>
	<path fill="#76FBA8" d="M120.7,116.7h-1.2v-8.6h2.7c0.4,0,0.8,0,1.2,0.1c0.4,0.1,0.7,0.2,1,0.4c0.3,0.2,0.5,0.4,0.7,0.7
		c0.2,0.3,0.2,0.7,0.2,1.1c0,0.6-0.2,1.1-0.6,1.5c-0.4,0.4-0.9,0.6-1.5,0.7l2.4,3.9h-1.4l-2.2-3.8h-1.3V116.7z M120.7,111.9h1.4
		c0.3,0,0.5,0,0.8-0.1c0.2,0,0.5-0.1,0.6-0.2c0.2-0.1,0.3-0.2,0.4-0.4c0.1-0.2,0.2-0.4,0.2-0.6s-0.1-0.5-0.2-0.6
		c-0.1-0.2-0.2-0.3-0.4-0.4s-0.4-0.2-0.6-0.2c-0.2,0-0.5-0.1-0.7-0.1h-1.5V111.9z"/>
	<path fill="#76FBA8" d="M139.5,115.4c-0.3,0.5-0.8,0.8-1.3,1.1c-0.5,0.3-1.2,0.4-1.9,0.4c-0.7,0-1.3-0.1-1.8-0.3
		c-0.6-0.2-1-0.5-1.4-0.9s-0.7-0.9-0.9-1.4s-0.3-1.2-0.3-1.8c0-0.7,0.1-1.3,0.3-1.8c0.2-0.6,0.5-1,1-1.4c0.4-0.4,0.9-0.7,1.4-0.9
		c0.6-0.2,1.2-0.3,1.8-0.3c0.3,0,0.6,0,0.9,0.1c0.3,0.1,0.6,0.1,0.9,0.3c0.3,0.1,0.5,0.3,0.7,0.4s0.4,0.4,0.6,0.6l-0.9,0.7
		c-0.2-0.3-0.5-0.5-0.9-0.7c-0.4-0.2-0.8-0.3-1.2-0.3c-0.5,0-0.9,0.1-1.3,0.3c-0.4,0.2-0.7,0.4-1,0.7c-0.3,0.3-0.5,0.7-0.7,1.1
		c-0.2,0.4-0.2,0.9-0.2,1.3c0,0.5,0.1,0.9,0.2,1.4s0.4,0.8,0.6,1.1c0.3,0.3,0.6,0.6,1,0.7c0.4,0.2,0.8,0.3,1.3,0.3
		c0.5,0,0.9-0.1,1.3-0.3c0.4-0.2,0.7-0.5,1-0.8L139.5,115.4z"/>
	<path fill="#76FBA8" d="M147.1,115.7h4.5v1.1h-5.7v-8.6h5.5v1.1h-4.3v2.6h4v1h-4V115.7z"/>
	<path fill="#76FBA8" d="M167.8,116.7h-1.2v-8.6h2.7c0.4,0,0.8,0,1.2,0.1c0.4,0.1,0.7,0.2,1,0.4c0.3,0.2,0.5,0.4,0.7,0.7
		c0.2,0.3,0.2,0.7,0.2,1.1c0,0.6-0.2,1.1-0.6,1.5c-0.4,0.4-0.9,0.6-1.5,0.7l2.4,3.9h-1.4l-2.2-3.8h-1.3V116.7z M167.8,111.9h1.4
		c0.3,0,0.5,0,0.8-0.1c0.2,0,0.5-0.1,0.6-0.2c0.2-0.1,0.3-0.2,0.4-0.4c0.1-0.2,0.2-0.4,0.2-0.6s-0.1-0.5-0.2-0.6
		c-0.1-0.2-0.2-0.3-0.4-0.4s-0.4-0.2-0.6-0.2c-0.2,0-0.5-0.1-0.7-0.1h-1.5V111.9z"/>
	<path fill="#76FBA8" d="M187.8,112.5c0,0.7-0.1,1.3-0.3,1.8c-0.2,0.6-0.5,1-0.9,1.4s-0.9,0.7-1.4,0.9c-0.6,0.2-1.2,0.3-1.8,0.3
		c-0.7,0-1.3-0.1-1.8-0.3c-0.6-0.2-1-0.5-1.4-0.9c-0.4-0.4-0.7-0.9-0.9-1.4s-0.3-1.2-0.3-1.8c0-0.7,0.1-1.3,0.3-1.8
		c0.2-0.6,0.5-1,0.9-1.4c0.4-0.4,0.9-0.7,1.4-0.9c0.6-0.2,1.2-0.3,1.8-0.3c0.7,0,1.3,0.1,1.8,0.3c0.6,0.2,1,0.5,1.4,0.9
		c0.4,0.4,0.7,0.9,0.9,1.4C187.7,111.2,187.8,111.8,187.8,112.5z M186.5,112.5c0-0.5-0.1-0.9-0.2-1.3c-0.2-0.4-0.4-0.8-0.7-1.1
		c-0.3-0.3-0.6-0.6-1-0.7c-0.4-0.2-0.8-0.3-1.3-0.3c-0.5,0-0.9,0.1-1.3,0.3c-0.4,0.2-0.7,0.4-1,0.7c-0.3,0.3-0.5,0.7-0.6,1.1
		c-0.2,0.4-0.2,0.9-0.2,1.3c0,0.5,0.1,0.9,0.2,1.3c0.2,0.4,0.4,0.8,0.7,1.1c0.3,0.3,0.6,0.6,1,0.7s0.8,0.3,1.3,0.3
		c0.5,0,0.9-0.1,1.3-0.3s0.7-0.4,1-0.7c0.3-0.3,0.5-0.7,0.7-1.1C186.4,113.4,186.5,112.9,186.5,112.5z"/>
	<path fill="#76FBA8" d="M197.9,117c-0.6,0-1.1-0.1-1.5-0.3c-0.4-0.2-0.8-0.4-1-0.8c-0.3-0.3-0.5-0.7-0.6-1.1
		c-0.1-0.4-0.2-0.8-0.2-1.3v-5.4h1.2v5.3c0,0.3,0,0.6,0.1,0.9c0.1,0.3,0.2,0.5,0.4,0.8c0.2,0.2,0.4,0.4,0.7,0.5s0.6,0.2,1,0.2
		c0.4,0,0.7-0.1,1-0.2s0.5-0.3,0.7-0.5c0.2-0.2,0.3-0.5,0.4-0.8s0.1-0.6,0.1-0.9v-5.3h1.2v5.4c0,0.4-0.1,0.9-0.2,1.3
		c-0.1,0.4-0.3,0.8-0.6,1.1c-0.3,0.3-0.6,0.6-1,0.8C198.9,116.9,198.4,117,197.9,117z"/>
	<path fill="#76FBA8" d="M211.4,116.7h-1.2v-7.5h-2.7v-1.1h6.7v1.1h-2.7V116.7z"/>
	<path fill="#76FBA8" d="M221.7,116.7h-1.2v-8.6h1.2V116.7z"/>
	<path fill="#76FBA8" d="M235,115L235,115l0-6.8h1.2v8.6h-1.5l-4.5-7h0v7h-1.2v-8.6h1.6L235,115z"/>
	<path fill="#76FBA8" d="M249.9,110c-0.3-0.3-0.6-0.5-1-0.7c-0.4-0.2-0.8-0.3-1.3-0.3c-0.5,0-1,0.1-1.4,0.3c-0.4,0.2-0.7,0.4-1,0.7
		c-0.3,0.3-0.5,0.7-0.7,1.1c-0.2,0.4-0.2,0.9-0.2,1.3c0,0.5,0.1,0.9,0.2,1.3c0.2,0.4,0.4,0.8,0.7,1.1c0.3,0.3,0.6,0.6,1,0.7
		c0.4,0.2,0.9,0.3,1.4,0.3c0.4,0,0.8,0,1.1-0.1c0.3-0.1,0.6-0.2,0.9-0.3v-2.4h-1.9v-1h3.1v4.1c-0.5,0.2-0.9,0.4-1.5,0.6
		s-1.1,0.2-1.7,0.2c-0.7,0-1.3-0.1-1.8-0.3c-0.6-0.2-1-0.5-1.4-0.9s-0.7-0.9-0.9-1.4c-0.2-0.6-0.3-1.2-0.3-1.8
		c0-0.7,0.1-1.3,0.3-1.8c0.2-0.6,0.5-1,1-1.4c0.4-0.4,0.9-0.7,1.4-0.9c0.6-0.2,1.2-0.3,1.8-0.3c0.7,0,1.3,0.1,1.8,0.3s1,0.5,1.3,0.8
		L249.9,110z"/>
	<path fill="#76FBA8" d="M270.7,114.8L270.7,114.8l2.5-6.6h1.9v8.6h-1.2v-7.1h0l-2.8,7.1h-0.8l-2.8-7.1h0v7.1h-1.2v-8.6h1.9
		L270.7,114.8z"/>
	<path fill="#76FBA8" d="M282.7,116.7h-1.3l3.7-8.6h1.1l3.7,8.6h-1.4l-0.9-2.1h-4.1L282.7,116.7z M284,113.6h3.2l-1.6-4L284,113.6z"
		/>
	<path fill="#76FBA8" d="M303.2,115.4c-0.3,0.5-0.8,0.8-1.3,1.1c-0.5,0.3-1.2,0.4-1.9,0.4c-0.7,0-1.3-0.1-1.8-0.3
		c-0.6-0.2-1-0.5-1.4-0.9s-0.7-0.9-0.9-1.4c-0.2-0.6-0.3-1.2-0.3-1.8c0-0.7,0.1-1.3,0.3-1.8c0.2-0.6,0.5-1,1-1.4
		c0.4-0.4,0.9-0.7,1.4-0.9c0.6-0.2,1.2-0.3,1.8-0.3c0.3,0,0.6,0,0.9,0.1c0.3,0.1,0.6,0.1,0.9,0.3c0.3,0.1,0.5,0.3,0.7,0.4
		s0.4,0.4,0.6,0.6l-0.9,0.7c-0.2-0.3-0.5-0.5-0.9-0.7c-0.4-0.2-0.8-0.3-1.2-0.3c-0.5,0-0.9,0.1-1.3,0.3c-0.4,0.2-0.7,0.4-1,0.7
		c-0.3,0.3-0.5,0.7-0.7,1.1c-0.2,0.4-0.2,0.9-0.2,1.3c0,0.5,0.1,0.9,0.2,1.4c0.1,0.4,0.4,0.8,0.6,1.1c0.3,0.3,0.6,0.6,1,0.7
		c0.4,0.2,0.8,0.3,1.3,0.3c0.5,0,0.9-0.1,1.3-0.3c0.4-0.2,0.7-0.5,1-0.8L303.2,115.4z"/>
	<path fill="#76FBA8" d="M309.7,108.2h1.2v3.6h4.3v-3.6h1.2v8.6h-1.2v-3.9h-4.3v3.9h-1.2V108.2z"/>
	<path fill="#76FBA8" d="M324.8,116.7h-1.2v-8.6h1.2V116.7z"/>
	<path fill="#76FBA8" d="M338.1,115L338.1,115l0-6.8h1.2v8.6h-1.5l-4.5-7h0v7h-1.2v-8.6h1.6L338.1,115z"/>
	<path fill="#76FBA8" d="M347.8,115.7h4.5v1.1h-5.7v-8.6h5.5v1.1h-4.3v2.6h4v1h-4V115.7z"/>
</g>
<path fill="#FFFFFF" d="M358.3,4.7c-1.1-1.2-2.6-1.8-4.3-1.8l-22.6,0.1c-2.8-0.2-4.7,1-5.8,3.6l-9.4,25.9L309.6,14l-2.7-7.4
	c-1-2.5-3-3.7-5.9-3.7h-29.5c-1.6,0-3,0.6-4.2,1.7c-1.1,1.2-1.7,2.6-1.7,4.2v82.7c0,1.6,0.6,3,1.8,4.1c1.1,1.2,2.5,1.8,4.1,1.8
	c1.6,0,3-0.6,4.2-1.7c1.1-1.2,1.7-2.6,1.7-4.2v-49l18.5,51.1c1,2.4,2.8,3.6,5.5,3.6c2.7,0,4.6-1.2,5.6-3.6l9.4-25.8l8.1,22.4
	l0.1-0.1l1.3,3.4c0.4,1.1,1.2,2,2.4,2.7c1.1,0.7,2.3,1.1,3.5,1.1h22.6c1.7,0,3.1-0.6,4.3-1.8c1.1-1.1,1.7-2.5,1.7-4.1V8.8
	C360,7.2,359.4,5.8,358.3,4.7z M301.4,73.6L280,14.7h17l2.6,7.1l0,0l10.2,28.4L301.4,73.6z M348.2,85.6h-12.7l-1.1-3l0,0l0,0
	l-3.8-10.6c0,0,0,0,0-0.1L322.6,50l12.8-35.3h12.8V85.6z M47.2,2.9c-13,0-24.2,4.6-33.4,13.9C4.6,26,0,37.1,0,50.1
	c0,13,4.6,24.2,13.9,33.4c9.2,9.2,20.4,13.9,33.4,13.9c13,0,24.2-4.6,33.4-13.9c9.2-9.2,13.9-20.4,13.9-33.4
	c0-13-4.6-24.2-13.9-33.4S60.3,2.9,47.2,2.9z M72.3,75.2c-6.9,6.9-15.3,10.4-25.1,10.4s-18.2-3.5-25.1-10.4
	c-6.9-6.9-10.4-15.3-10.4-25.1S15.3,32,22.2,25.1c6.9-6.9,15.3-10.4,25.1-10.4s18.2,3.5,25.1,10.4c6.9,6.9,10.4,15.3,10.4,25.1
	S79.2,68.3,72.3,75.2z M109.9,50.1c-3.9-5.2-5.9-11.1-5.9-17.7c0-7.9,3.2-14.9,9.5-20.9c6.1-5.7,12.7-8.6,20-8.6
	c6.1,0,11.3,1.4,15.8,4.2c3.4,2.1,7,5.6,10.7,10.4c1.4,1.7,2.1,3.3,2.1,4.8c0,1.7-0.6,3.1-1.7,4.2c-1.1,1.1-2.5,1.7-4.2,1.7
	c-2,0-3.6-0.8-4.8-2.5c-5.6-7.4-11.6-11-17.9-11c-4.9,0-9,1.7-12.5,5.2c-3.5,3.5-5.2,7.6-5.2,12.5c0,3.6,1,6.9,3,9.8l18.9,21.4
	c1.1,1.2,1.7,2.6,1.7,4.2c0,1.6-0.6,3-1.7,4.2c-1.1,1.1-2.5,1.7-4.2,1.7c-1.7,0-3.2-0.7-4.4-2L109.9,50.1z M237.2,59.2l12.1,29.9
	c0.6,1.5,0.6,3.1,0,4.6c-0.7,1.5-1.8,2.6-3.3,3.2c-1.5,0.6-3.1,0.6-4.6-0.1c-1.5-0.7-2.6-1.8-3.2-3.3l-14.4-35.3
	c-0.6-1.4-0.6-2.9-0.1-4.3c0.5-1.5,1.4-2.5,2.7-3.2l0.5-0.2l0.2-0.1l0.2-0.1l0.1-0.1l0.3-0.1h0.1h0.1l0.1-0.1h0.1
	c2-0.6,3.4-1.1,4.3-1.5c5.8-3.1,8.7-8.5,8.7-16.2c0-4.4-1.7-8.4-5.1-12c-3.5-3.7-7.5-5.6-12.2-5.7h-35.8v76.8c0,1.6-0.6,3-1.7,4.2
	c-1.2,1.1-2.6,1.7-4.2,1.7c-1.6,0-3-0.6-4.1-1.8c-1.2-1.1-1.8-2.5-1.8-4.1V8.8c0-1.6,0.6-3,1.7-4.1c1.1-1.2,2.6-1.8,4.3-1.8h41.3
	c8,0,15,3,20.9,9c5.7,5.9,8.6,12.7,8.6,20.5c0,6-1.4,11.4-4.3,16.2C245.7,53.2,242,56.8,237.2,59.2z M157.1,50.2
	c3.9,4.6,5.9,10.5,5.9,17.7c0,7.9-3.2,14.9-9.5,20.8c-6.1,5.8-12.7,8.7-20,8.7c-6,0-11.3-1.4-15.7-4.2c-3.4-2.1-7-5.6-10.7-10.4
	c-1.4-1.7-2.1-3.3-2.1-4.8c0-1.7,0.6-3.1,1.7-4.2c1.1-1.1,2.5-1.7,4.2-1.7c2,0,3.6,0.8,4.8,2.5c5.6,7.4,11.6,11,17.8,11
	c4.9,0,9.1-1.7,12.5-5.2c3.5-3.5,5.2-7.6,5.2-12.5c0-4.1-1-7.3-3-9.8l-18.9-21.4c-1.1-1.2-1.7-2.6-1.7-4.2c0-1.6,0.6-3,1.7-4.2
	c1.1-1.1,2.5-1.7,4.1-1.7c1.8,0,3.2,0.7,4.4,2L157.1,50.2z M227.4,36.6c-1.2,1.1-2.6,1.7-4.2,1.7h-11.8v53.2c0,1.6-0.6,3-1.8,4.1
	c-1.1,1.2-2.5,1.8-4.1,1.8c-1.6,0-3-0.6-4.2-1.7c-1.1-1.2-1.7-2.6-1.7-4.2V32.7c0-1.8,0.5-3.3,1.6-4.5c1.1-1.1,2.5-1.7,4.3-1.7h17.7
	c1.6,0,3,0.6,4.1,1.8c1.2,1.1,1.8,2.5,1.8,4.1C229.1,34,228.5,35.4,227.4,36.6z"/>
<g>
	<path fill="#76FBA8" d="M64,33.4c-4.6-4.6-10.2-6.9-16.7-6.9c-6.5,0-12.1,2.3-16.7,6.9c-4.6,4.6-6.9,10.2-6.9,16.7
		c0,6.5,2.3,12.1,6.9,16.7c4.6,4.6,10.2,6.9,16.7,6.9c6.5,0,12.1-2.3,16.7-6.9c4.6-4.6,6.9-10.2,6.9-16.7C70.9,43.6,68.6,38,64,33.4
		z M55.6,58.5c-2.3,2.3-5.1,3.5-8.4,3.5c-3.3,0-6.1-1.2-8.4-3.5c-2.3-2.3-3.5-5.1-3.5-8.4c0-3.3,1.2-6.1,3.5-8.4
		c2.3-2.3,5.1-3.5,8.4-3.5c3.3,0,6.1,1.2,8.4,3.5c2.3,2.3,3.5,5.1,3.5,8.4C59.1,53.4,57.9,56.2,55.6,58.5z"/>
</g>
</svg>
